PathFileType	4	(X/Y/Z)	 s05c0302.trc
DataRate	CameraRate	NumFrames	NumMarkers	Units	OrigDataRate	OrigDataStartFrame	OrigNumFrames
200	200	4	49	mm	200	1001	2000
Frame#	Time	racr			lacr			c7			jug			rlel			rdr			llel			ldr			s2			lic			ric			lasi			rasi			rpsi			lpsi			rgt			lgt			rth1			rth2			rth3			rth4			rlfc			rsh1			rsh2			rsh3			rsh4			rlmal			rmmal			rcal			rtoe			rmt5			lth1			lth2			lth4			lth3			llfc			lmfc			lsh1			lsh2			lsh3			lsh4			llmal			lmmal			lcal			ltoe			lmt5			SBIKE			LBIKE			RBIKE			
		X1	Y1	Z1	X2	Y2	Z2	X3	Y3	Z3	X4	Y4	Z4	X5	Y5	Z5	X6	Y6	Z6	X7	Y7	Z7	X8	Y8	Z8	X9	Y9	Z9	X10	Y10	Z10	X11	Y11	Z11	X12	Y12	Z12	X13	Y13	Z13	X14	Y14	Z14	X15	Y15	Z15	X16	Y16	Z16	X17	Y17	Z17	X18	Y18	Z18	X19	Y19	Z19	X20	Y20	Z20	X21	Y21	Z21	X22	Y22	Z22	X23	Y23	Z23	X24	Y24	Z24	X25	Y25	Z25	X26	Y26	Z26	X27	Y27	Z27	X28	Y28	Z28	X29	Y29	Z29	X30	Y30	Z30	X31	Y31	Z31	X32	Y32	Z32	X33	Y33	Z33	X34	Y34	Z34	X35	Y35	Z35	X36	Y36	Z36	X37	Y37	Z37	X38	Y38	Z38	X39	Y39	Z39	X40	Y40	Z40	X41	Y41	Z41	X42	Y42	Z42	X43	Y43	Z43	X44	Y44	Z44	X45	Y45	Z45	X46	Y46	Z46	X47	Y47	Z47	X48	Y48	Z48	X49	Y49	Z49	
1001	5.0050	796.135213	1282.303860	-98.082543	805.875301	1256.497860	-384.904556	802.553364	1347.689004	-252.916051	731.609785	1197.975299	-234.258022	599.022523	1105.055473	31.335552	705.610041	922.253708	-60.686059	587.451476	1121.057586	-557.792728	711.896974	933.977663	-456.791630	211.924942	1247.739029	-303.802669	383.775895	1201.175945	-409.733734	330.061922	1274.301463	-139.972688	407.773769	1146.597001	-354.927356	354.440091	1199.343564	-149.450672	246.763366	1296.306087	-264.961312	269.899215	1278.370764	-347.364879	261.829442	1153.838149	-101.059090	291.772397	1117.705109	-433.583740	352.238468	1076.295548	-66.975349	430.780036	1036.079721	-53.823277	476.527593	961.587916	-42.958930	455.304699	1060.371852	-66.196015	567.011979	846.375492	-50.183423	465.488308	806.383908	-37.959710	406.605340	742.882362	-57.111845	326.920289	716.305662	-71.081895	427.937937	717.581961	-76.693647	222.575975	635.989244	-92.052801	259.386006	648.899284	-166.516847	164.461424	680.616677	-138.302454	272.452679	406.864169	-156.025877	209.621753	482.346173	-84.552595	315.352271	981.627953	-449.953632	346.873017	902.701714	-440.212602	379.283244	906.026217	-421.569879	333.160905	812.895608	-440.424079	331.735872	673.579284	-407.057901	293.135617	663.296050	-309.384220	269.319722	566.136742	-450.114384	259.615960	479.969163	-441.967316	208.705802	407.624948	-450.373450	285.286244	471.255489	-414.560005	176.595326	296.494128	-447.686258	196.748285	314.177334	-376.548138	105.411011	281.946692	-417.912849	357.820615	133.720500	-378.886015	260.082808	154.596453	-458.668985	-164.012010	903.745240	-266.539748	-43.536453	85.078165	-474.677000	-51.699652	80.264136	-77.197559	
1002	5.0100	795.321385	1281.666050	-94.972187	806.216143	1257.207662	-381.668227	802.301956	1347.824656	-249.464785	730.720571	1198.502837	-231.364551	598.173961	1104.228537	32.398734	705.765383	923.026206	-59.963106	588.510599	1122.529000	-555.876986	712.244949	933.913128	-456.833715	212.752451	1247.579463	-307.991014	386.927067	1200.826031	-411.072243	327.573167	1275.422530	-142.717956	409.536207	1146.566545	-355.575050	352.699602	1199.955086	-152.347832	246.796255	1296.917325	-269.563392	271.938758	1278.299955	-350.638773	260.016556	1155.398405	-104.588897	294.532274	1117.681542	-435.870329	351.410533	1080.000850	-68.879493	430.633829	1041.315349	-54.865960	477.826282	967.859261	-43.273682	454.821584	1065.924081	-67.360453	570.753342	854.740441	-48.767751	470.379832	813.144192	-37.269970	412.256372	748.692003	-56.259268	333.054549	721.013847	-70.773417	434.378274	723.823951	-74.759854	230.230593	638.584480	-91.971669	266.980561	651.977307	-166.055570	171.661368	682.256316	-138.283613	283.829204	410.247646	-156.184141	219.917390	484.535996	-84.531093	316.263176	982.765982	-452.346132	346.247675	903.285926	-443.360077	378.512122	905.777909	-424.372226	330.724708	813.676167	-444.582617	325.433023	673.490430	-410.906951	285.883912	663.604869	-313.047036	263.664005	566.243327	-454.202584	253.850479	480.180033	-445.976558	202.980211	407.794460	-454.969467	279.084955	471.329306	-418.150200	170.806854	296.312128	-451.179781	190.527740	313.763850	-378.973426	99.535357	283.921381	-421.494676	347.454480	129.391817	-378.637948	250.949513	151.753708	-459.613323	-163.872325	903.853116	-265.686706	-43.537916	85.069226	-474.696324	-51.705061	80.279057	-77.202674	
1003	5.0150	794.546535	1280.758462	-91.965206	806.274084	1257.828219	-378.378942	801.927126	1348.087889	-245.992272	729.708941	1199.082755	-228.675018	597.490780	1103.503409	33.275377	705.695243	923.698935	-59.651374	589.370445	1123.920817	-553.918888	712.598015	933.772235	-456.816714	213.420167	1247.826351	-312.279524	389.726069	1200.728891	-412.338834	325.232598	1276.527288	-145.596247	411.053220	1146.714503	-356.146442	350.233669	1201.310434	-154.303082	246.750068	1297.470401	-273.688008	273.223259	1278.442673	-354.402857	258.114694	1157.202045	-107.826656	297.027277	1117.810710	-438.154451	350.309080	1083.743277	-71.122979	430.076347	1046.386179	-55.953986	478.423944	974.059727	-42.918780	454.016530	1071.341713	-68.395920	573.956060	862.746762	-47.568558	474.621428	819.637810	-36.649169	417.672551	754.052982	-55.471938	339.034683	725.025714	-70.365748	440.297977	729.311328	-73.550141	237.774854	640.434776	-91.766487	274.105655	654.233345	-165.506032	178.599010	683.063458	-138.369709	295.201371	413.196568	-156.041626	230.206840	486.223557	-84.362602	317.783254	984.232177	-454.862169	346.222903	904.133567	-445.943688	378.353398	905.978626	-426.658693	329.163886	814.686382	-447.815872	320.192821	674.020327	-414.486725	279.938092	664.500233	-316.294269	258.666887	566.908607	-457.677498	248.503198	480.802772	-449.460778	197.698670	408.617686	-459.219540	273.493461	472.043365	-421.480414	165.458481	296.890658	-454.378302	184.807063	314.087555	-381.213377	93.964423	286.586283	-425.180292	336.990977	125.677088	-378.053104	242.091119	149.787508	-460.360607	-163.371821	903.974378	-265.961083	-43.544893	85.078909	-474.736981	-51.726546	80.266475	-77.242734	
1004	5.0200	793.841240	1279.602512	-89.076718	806.385627	1258.510783	-375.174631	801.501899	1348.083936	-242.542688	728.737042	1199.474080	-226.056611	596.791216	1102.689437	34.230453	705.676132	924.451318	-59.234729	590.124369	1125.276279	-551.930174	712.891119	933.473443	-456.662631	213.874617	1248.550081	-316.630017	392.241275	1201.037960	-413.640727	323.286789	1277.033087	-148.639429	412.313753	1147.350481	-356.756588	347.499155	1202.434504	-156.995906	247.025168	1298.629705	-277.145918	274.495692	1279.108145	-357.923270	256.365213	1159.020595	-111.041623	299.207036	1118.150968	-440.494617	349.051338	1086.902599	-74.414913	428.998647	1051.260299	-57.127812	478.372575	979.744746	-43.372439	452.361348	1077.066873	-69.207658	576.710912	870.478677	-46.150224	478.512324	825.510287	-36.138762	422.854560	758.935695	-54.801079	344.796556	728.439878	-69.940162	446.006631	734.314132	-72.478008	245.040245	641.542519	-91.554441	282.138978	655.990396	-165.030709	185.405884	682.984456	-137.736771	306.789167	415.650871	-155.905716	241.017391	487.727645	-83.445168	319.389333	985.801803	-456.423606	346.700769	905.393453	-447.878237	378.771941	906.602895	-428.461650	328.533023	816.139084	-450.394757	315.965177	674.865245	-417.726861	275.620802	665.756379	-319.053335	254.171354	568.040279	-460.703000	243.746636	482.022507	-452.520144	192.950479	409.982000	-462.828030	268.560846	473.243609	-424.474102	160.652946	298.074991	-457.281383	179.662918	315.170404	-383.234654	88.738977	290.219799	-428.941562	326.378467	122.297034	-377.404952	233.217065	148.530306	-460.999078	-163.352771	903.970540	-266.074201	-43.567605	85.059222	-474.763408	-51.728432	80.271504	-77.256744	
